<?xml version="1.0" encoding="UTF-8" standalone="no"?>
<!DOCTYPE svg PUBLIC "-//W3C//DTD SVG 1.1//EN" "http://www.w3.org/Graphics/SVG/1.1/DTD/svg11.dtd">
<!-- Created with Inkscape (http://www.inkscape.org/) by Marsupilami -->
<svg
   xmlns:svg="http://www.w3.org/2000/svg"
   xmlns="http://www.w3.org/2000/svg"
   id="svg1767"
   version="1.1"
   width="1000"
   height="506.04474">
  <defs
     id="defs1764" />
  <path
     id="path1681"
     style="fill:#0071b9;fill-opacity:1;fill-rule:nonzero;stroke:none;stroke-width:16.40339088"
     d="M 0,506.02825 H 232.61651 V 0 H 0 Z m 255.82735,0 H 488.42737 V 0 H 255.82735 Z m 255.71244,0 H 744.13993 V 0 H 511.53979 Z M 1000,0.01649 H 767.36713 V 506.04474 H 1000 Z" />
  <path
     d="m 213.5312,348.70996 -74.9471,-99.92951 70.14086,-88.85721 H 148.29487 L 84.78089,242.28471 V 159.92324 H 33.45468 v 188.78672 h 51.32621 v -89.44774 l 65.94164,89.44774 z m 207.05994,-95.73028 c 0,32.05231 -21.1931,54.03277 -48.47203,54.03277 -27.32801,0 -48.45554,-21.98046 -48.45554,-54.03277 0,-31.97013 21.12753,-54.01629 48.45554,-54.01629 27.27893,0 48.47203,22.04616 48.47203,54.01629 m 51.32621,0 c 0,-58.4452 -44.486,-98.50229 -99.79824,-98.50229 -55.29575,0 -99.76539,40.05709 -99.76539,98.50229 0,58.46169 44.46964,98.58447 99.76539,98.58447 55.31224,0 99.79824,-40.12278 99.79824,-98.58447 m 215.58979,95.73028 H 713.4409 V 159.92324 h -47.61897 v 92.2035 l -94.15555,-92.2035 h -29.34563 v 188.78672 h 47.45497 v -95.79585 z m 174.6634,-42.8457 v -32.01947 h 83.34555 l 0.0123,-40.40155 h -83.36203 v -31.92092 h 94.89358 V 159.92324 H 811.46388 v 188.78672 h 145.60024 v -42.8457 z"
     style="fill:#ffffff;fill-opacity:1;fill-rule:nonzero;stroke:none;stroke-width:16.40339088"
     id="path1693" />
</svg>
